#!OML:ASF E:\pregnant2\Project 1\Capture day 1\Session 1\pregnant2.ASF
:FULLY-SPECIFIED
:DEGREES
702
root 4.1209 17.0855 44.2734 37.2971 19.1408 0.246285
lowerback -27.6237 -2.41533 -1.21074
upperback -19.4052 -2.42145 1.14905
thorax -6.70125 -0.842249 1.42907
lowerneck -12.0999 -1.26267 -3.37618
upperneck 42.0872 -0.399624 -0.433424
head 17.569 -0.666265 0.371968
rclavicle -6.31763e-015 7.37988e-015
rhumerus 35.3314 31.6045 -12.2851
rradius 111.81
rwrist -14.4228
rhand -19.8108 -19.0808
rfingers 7.12502
rthumb 6.52248 -48.9604
lclavicle -6.31763e-015 7.37988e-015
lhumerus 44.8762 -34.0853 3.27837
lradius 112.94
lwrist 22.3372
lhand -14.407 31.4458
lfingers 7.12502
lthumb 11.7366 61.097
rfemur -46.5454 9.78409 13.5807
rtibia 23.8651
rfoot -13.9572 -18.0677
rtoes -1.33202
lfemur -48.3278 -14.9524 -12.9561
ltibia 20.5274
lfoot -4.54507 14.1345
ltoes -17.666
703
root 4.11968 17.0855 44.2726 37.2902 19.1554 0.254374
lowerback -27.6175 -2.40759 -1.2131
upperback -19.4218 -2.41022 1.1256
thorax -6.72607 -0.837173 1.40735
lowerneck -12.0747 -1.29775 -3.36588
upperneck 42.0494 -0.459462 -0.437707
head 17.5413 -0.689499 0.357549
rclavicle -1.31881e-014 5.85172e-015
rhumerus 36.6109 32.9588 -10.9123
rradius 113.022
rwrist -13.5066
rhand -20.6548 -19.5521
rfingers 7.12502
rthumb 5.70766 -49.4552
lclavicle -1.31881e-014 5.85172e-015
lhumerus 46.3981 -35.2956 1.87384
lradius 113.886
lwrist 21.7603
lhand -14.9648 31.7905
lfingers 7.12502
lthumb 11.1987 61.4716
rfemur -46.5375 9.77749 13.5825
rtibia 23.8693
rfoot -13.9702 -18.0688
rtoes -1.25281
lfemur -48.3212 -14.9536 -12.9637
ltibia 20.5251
lfoot -4.5449 14.1209
ltoes -17.679
704
root 4.11838 17.0854 44.2718 37.2834 19.1706 0.260171
lowerback -27.6121 -2.40526 -1.21519
upperback -19.4355 -2.40614 1.11194
thorax -6.74633 -0.83523 1.39474
lowerneck -12.0627 -1.32876 -3.36597
upperneck 42.0164 -0.510791 -0.437803
head 17.5199 -0.7105 0.348398
rclavicle -2.24518e-014 5.23301e-014
rhumerus 37.9214 34.2831 -9.52362
rradius 114.17
rwrist -12.7378
rhand -21.616 -20.0094
rfingers 7.12502
rthumb 4.77961 -49.9355
lclavicle -2.24518e-014 5.23301e-014
lhumerus 47.9211 -36.4922 0.444387
lradius 114.797
lwrist 21.2718
lhand -15.5061 32.3153
lfingers 7.12502
lthumb 10.6766 62.024
rfemur -46.5294 9.77149 13.587
rtibia 23.8718
rfoot -13.9769 -18.0722
rtoes -1.23036
lfemur -48.3128 -14.9486 -12.9743
ltibia 20.5273
lfoot -4.54857 14.1021
ltoes -17.6987
705
root 4.11716 17.0854 44.2711 37.2756 19.1865 0.264089
lowerback -27.6029 -2.42431 -1.21914
upperback -19.4469 -2.42956 1.13305
thorax -6.76273 -0.84499 1.41595
lowerneck -12.0717 -1.34292 -3.39714
upperneck 41.9878 -0.524996 -0.438369
head 17.5064 -0.721675 0.351089
rclavicle 1.5558e-014 2.00897e-014
rhumerus 39.3221 35.578 -8.09257
rradius 115.273
rwrist -12.1353
rhand -22.62 -20.4126
rfingers 7.12502
rthumb 3.8101 -50.3583
lclavicle 1.5558e-014 2.00897e-014
lhumerus 49.3818 -37.6728 -0.976128
lradius 115.658
lwrist 20.8902
lhand -16.0301 32.9483
lfingers 7.12502
lthumb 10.1711 62.6824
rfemur -46.5212 9.76437 13.5943
rtibia 23.8752
rfoot -13.9829 -18.0741
rtoes -1.21466
lfemur -48.3041 -14.9427 -12.9831
ltibia 20.5291
lfoot -4.55203 14.0822
ltoes -17.7105
706
root 4.116 17.0853 44.2702 37.2668 19.2035 0.265721
lowerback -27.5887 -2.46423 -1.22339
upperback -19.4553 -2.48016 1.18884
thorax -6.77518 -0.866482 1.47015
lowerneck -12.1047 -1.33914 -3.46319
upperneck 41.9634 -0.502068 -0.43222
head 17.5014 -0.722605 0.369601
rclavicle 1.44305e-014 -4.62174e-015
rhumerus 40.8015 36.8328 -6.62379
rradius 116.352
rwrist -11.711
rhand -23.5399 -20.7245
rfingers 7.12502
rthumb 2.92168 -50.6842
lclavicle 1.44305e-014 -4.62174e-015
lhumerus 50.7591 -38.8371 -2.37234
lradius 116.455
lwrist 20.6255
lhand -16.5874 33.6219
lfingers 7.12502
lthumb 9.63342 63.3816
rfemur -46.511 9.75156 13.6083
rtibia 23.8766
rfoot -13.9855 -18.0695
rtoes -1.2081
lfemur -48.2964 -14.9354 -12.9908
ltibia 20.5352
lfoot -4.55903 14.0622
ltoes -17.7168
707
root 4.11487 17.0851 44.2693 37.2578 19.2213 0.26569
lowerback -27.5705 -2.51195 -1.22602
upperback -19.4619 -2.54141 1.25735
thorax -6.78618 -0.892851 1.53537
lowerneck -12.1538 -1.33246 -3.54709
upperneck 41.9434 -0.473305 -0.414592
head 17.5034 -0.722613 0.397543
rclavicle 6.80713e-014 2.31087e-014
rhumerus 42.2954 38.0482 -5.14633
rradius 117.413
rwrist -11.3773
rhand -24.2924 -20.983
rfingers 7.12502
rthumb 2.19495 -50.9515
lclavicle 6.80713e-014 2.31087e-014
lhumerus 52.1056 -39.9769 -3.76009
lradius 117.191
lwrist 20.4872
lhand -17.234 34.2636
lfingers 7.12502
lthumb 9.00959 64.0512
rfemur -46.5015 9.73565 13.6263
rtibia 23.8788
rfoot -13.9877 -18.0615
rtoes -1.20662
lfemur -48.2948 -14.9334 -12.989
ltibia 20.5378
lfoot -4.55881 14.0476
ltoes -17.7143
708
root 4.11383 17.0851 44.2684 37.2479 19.2411 0.263279
lowerback -27.5519 -2.55917 -1.22388
upperback -19.4656 -2.60311 1.32583
thorax -6.79366 -0.920076 1.59776
lowerneck -12.2067 -1.32503 -3.63536
upperneck 41.9206 -0.447702 -0.383275
head 17.5048 -0.72269 0.432013
rclavicle 1.17283e-014 -2.54941e-014
rhumerus 43.7639 39.2321 -3.66978
rradius 118.436
rwrist -11.0058
rhand -24.8474 -21.2082
rfingers 7.12502
rthumb 1.659 -51.1815
lclavicle 1.17283e-014 -2.54941e-014
lhumerus 53.4405 -41.082 -5.14314
lradius 117.879
lwrist 20.4665
lhand -18.0187 34.8595
lfingers 7.12502
lthumb 8.25228 64.6783
rfemur -46.4906 9.71737 13.6485
rtibia 23.8792
rfoot -13.9894 -18.0502
rtoes -1.1947
lfemur -48.2906 -14.9311 -12.9857
ltibia 20.5421
lfoot -4.56828 14.0325
ltoes -17.6956
709
root 4.11272 17.0849 44.2674 37.2384 19.2622 0.260864
lowerback -27.5363 -2.60183 -1.21997
upperback -19.4667 -2.65931 1.38495
thorax -6.79727 -0.945392 1.64979
lowerneck -12.254 -1.32231 -3.71708
upperneck 41.8902 -0.436796 -0.34069
head 17.5004 -0.726031 0.467912
rclavicle -4.30369e-014 8.89561e-015
rhumerus 45.1813 40.3952 -2.19525
rradius 119.397
rwrist -10.4783
rhand -25.1994 -21.5385
rfingers 7.12502
rthumb 1.31899 -51.5141
lclavicle -4.30369e-014 8.89561e-015
lhumerus 54.7654 -42.1446 -6.51671
lradius 118.516
lwrist 20.5302
lhand -18.9437 35.3633
lfingers 7.12502
lthumb 7.35947 65.2153
rfemur -46.4805 9.6979 13.672
rtibia 23.8798
rfoot -13.9889 -18.0391
rtoes -1.19715
lfemur -48.2942 -14.935 -12.9742
ltibia 20.5452
lfoot -4.57073 14.0229
ltoes -17.6801
710
root 4.1116 17.0849 44.2666 37.2272 19.2864 0.255575
lowerback -27.5284 -2.60871 -1.20626
upperback -19.4685 -2.67096 1.38502
thorax -6.80309 -0.952761 1.64003
lowerneck -12.2586 -1.34964 -3.74583
upperneck 41.8463 -0.500008 -0.279189
head 17.4777 -0.747998 0.489992
rclavicle 1.04362e-015 1.54555e-014
rhumerus 46.4091 41.5628 -0.798454
rradius 120.251
rwrist -9.71127
rhand -25.5134 -21.8363
rfingers 7.12502
rthumb 1.0157 -51.8136
lclavicle 1.04362e-015 1.54555e-014
lhumerus 56.2142 -43.1534 -7.96682
lradius 119.114
lwrist 20.6104
lhand -19.9899 35.8134
lfingers 7.12502
lthumb 6.34955 65.6982
rfemur -46.4674 9.67665 13.7009
rtibia 23.8777
rfoot -13.9875 -18.0247
rtoes -1.19145
lfemur -48.2956 -14.9353 -12.9635
ltibia 20.5545
lfoot -4.58382 14.0088
ltoes -17.662
711
root 4.1104 17.0848 44.2657 37.215 19.3128 0.249601
lowerback -27.5232 -2.61849 -1.19305
upperback -19.4662 -2.68634 1.3869
thorax -6.80246 -0.962016 1.63159
lowerneck -12.2609 -1.37504 -3.77798
upperneck 41.7906 -0.562959 -0.209657
head 17.4478 -0.76921 0.516393
rclavicle -7.35503e-015 -1.29707e-014
rhumerus 47.6322 42.7168 0.632676
rradius 120.98
rwrist -8.72639
rhand -25.8908 -22.1236
rfingers 7.12502
rthumb 0.651174 -52.1023
lclavicle -7.35503e-015 -1.29707e-014
lhumerus 57.5881 -44.1015 -9.35371
lradius 119.634
lwrist 20.6507
lhand -21.0997 36.0726
lfingers 7.12502
lthumb 5.27807 65.9869
rfemur -46.4528 9.65329 13.7329
rtibia 23.8751
rfoot -13.9839 -18.0088
rtoes -1.19191
lfemur -48.3001 -14.9381 -12.9493
ltibia 20.5654
lfoot -4.59195 13.9963
ltoes -17.6629
